<!-- Generated by IcoMoon.io -->
<svg version="1.1" xmlns="http://www.w3.org/2000/svg" width="32" height="32" viewBox="0 0 32 32">
<title>delete</title>
<path d="M15.906 1.207c-1.975 0-3.831 0.374-5.567 1.123s-3.254 1.778-4.553 3.088c-1.3 1.31-2.323 2.838-3.072 4.585s-1.123 3.607-1.123 5.583c0 1.996 0.374 3.867 1.123 5.614s1.772 3.27 3.072 4.569c1.3 1.299 2.817 2.329 4.553 3.088s3.592 1.138 5.567 1.138c1.975 0 3.831-0.379 5.567-1.138s3.254-1.788 4.553-3.088c1.3-1.299 2.323-2.823 3.072-4.569s1.123-3.618 1.123-5.614c0-1.975-0.374-3.836-1.123-5.583s-1.772-3.275-3.072-4.585c-1.3-1.31-2.817-2.339-4.553-3.088s-3.592-1.123-5.567-1.123zM15.906 28.215c-1.726 0-3.347-0.333-4.865-0.998s-2.849-1.57-3.992-2.713c-1.144-1.144-2.043-2.479-2.698-4.008s-0.982-3.166-0.982-4.912c0-1.726 0.328-3.353 0.982-4.881s1.554-2.864 2.698-4.008c1.144-1.144 2.474-2.043 3.992-2.698s3.14-0.982 4.865-0.982c1.726 0 3.347 0.328 4.865 0.982s2.849 1.554 3.992 2.698c1.144 1.144 2.043 2.479 2.698 4.008s0.982 3.155 0.982 4.881c0 1.747-0.328 3.384-0.982 4.912s-1.554 2.864-2.698 4.008c-1.144 1.144-2.474 2.048-3.992 2.713s-3.14 0.998-4.865 0.998zM20.959 10.501c-0.166-0.166-0.374-0.249-0.624-0.249s-0.457 0.083-0.624 0.249l-3.805 3.805-3.805-3.805c-0.166-0.166-0.374-0.249-0.624-0.249s-0.457 0.083-0.624 0.249c-0.187 0.166-0.281 0.374-0.281 0.624s0.094 0.468 0.281 0.655l3.774 3.805-3.774 3.836c-0.187 0.166-0.281 0.374-0.281 0.624s0.094 0.457 0.281 0.624c0.166 0.187 0.374 0.281 0.624 0.281s0.457-0.094 0.624-0.281l3.805-3.805 3.805 3.805c0.166 0.187 0.374 0.281 0.624 0.281s0.457-0.094 0.624-0.281c0.187-0.166 0.281-0.374 0.281-0.624s-0.094-0.457-0.281-0.624l-3.774-3.836 3.774-3.805c0.187-0.187 0.281-0.4 0.281-0.639s-0.094-0.452-0.281-0.639z"></path>
</svg>
