<!-- Generated by IcoMoon.io -->
<svg version="1.1" xmlns="http://www.w3.org/2000/svg" width="32" height="32" viewBox="0 0 32 32">
<title>edit</title>
<path d="M30.311 6.021c-0.021-0.609-0.173-1.197-0.457-1.765s-0.698-1.113-1.245-1.639c-0.483-0.462-0.993-0.814-1.528-1.056s-1.098-0.362-1.686-0.362c-0.882 0-1.633 0.21-2.253 0.63s-1.024 0.714-1.213 0.882c-0.105 0.126-1.092 1.124-2.962 2.993s-3.891 3.902-6.066 6.097c-2.174 2.195-4.159 4.196-5.955 6.003s-2.694 2.71-2.694 2.71c-0.063 0.063-0.116 0.126-0.158 0.189s-0.074 0.137-0.095 0.221c-0.084 0.357-0.257 0.966-0.52 1.828s-0.525 1.738-0.788 2.631c-0.263 0.893-0.499 1.686-0.709 2.379s-0.315 1.050-0.315 1.071c-0.063 0.147-0.073 0.305-0.032 0.473s0.126 0.315 0.252 0.441c0.084 0.084 0.184 0.147 0.299 0.189s0.226 0.063 0.331 0.063c0.042 0 0.089 0 0.142 0s0.1-0.010 0.142-0.032c0.021 0 0.383-0.116 1.087-0.347s1.502-0.488 2.395-0.772c0.893-0.284 1.754-0.562 2.584-0.835s1.381-0.452 1.654-0.536c0.063-0.021 0.126-0.047 0.189-0.079s0.126-0.079 0.189-0.142c0.168-0.168 1.14-1.134 2.915-2.899s3.718-3.697 5.829-5.798c2.111-2.101 4.075-4.059 5.892-5.877s2.862-2.862 3.135-3.135c0.546-0.588 0.956-1.176 1.229-1.765s0.41-1.176 0.41-1.765zM10.933 24.643c-0.147-0.357-0.341-0.735-0.583-1.134s-0.551-0.788-0.93-1.166c-0.483-0.483-0.951-0.867-1.402-1.15s-0.867-0.499-1.245-0.646c0.798-0.798 1.859-1.859 3.182-3.182s2.71-2.715 4.159-4.175c1.449-1.46 2.852-2.873 4.207-4.238s2.463-2.479 3.324-3.34c0.231 0.042 0.593 0.179 1.087 0.41s1.014 0.62 1.56 1.166c0.546 0.567 0.919 1.124 1.119 1.67s0.31 0.893 0.331 1.040c-0.861 0.882-1.969 1.996-3.324 3.34s-2.752 2.731-4.191 4.159c-1.439 1.428-2.815 2.794-4.128 4.096s-2.368 2.353-3.167 3.151zM5.576 22.059c0.252 0.063 0.609 0.21 1.071 0.441s0.956 0.609 1.481 1.134c0.399 0.399 0.704 0.809 0.914 1.229s0.357 0.767 0.441 1.040c-0.63 0.189-1.523 0.483-2.678 0.882s-2.164 0.735-3.025 1.008c0.252-0.84 0.562-1.833 0.93-2.978s0.656-2.064 0.867-2.757zM27.381 8.258c-0.021 0.021-0.047 0.047-0.079 0.079s-0.058 0.058-0.079 0.079c-0.147-0.357-0.352-0.761-0.614-1.213s-0.604-0.888-1.024-1.308c-0.441-0.441-0.877-0.804-1.308-1.087s-0.825-0.499-1.182-0.646c0.021-0.042 0.042-0.074 0.063-0.095s0.042-0.032 0.063-0.032c0.042-0.042 0.273-0.221 0.693-0.536s0.914-0.473 1.481-0.473c0.336 0 0.667 0.079 0.993 0.236s0.646 0.383 0.961 0.677c0.378 0.357 0.662 0.714 0.851 1.071s0.284 0.704 0.284 1.040c0 0.336-0.089 0.688-0.268 1.056s-0.457 0.751-0.835 1.15z"></path>
</svg>
