<!-- Generated by IcoMoon.io -->
<svg version="1.1" xmlns="http://www.w3.org/2000/svg" width="31" height="32" viewBox="0 0 31 32">
<title>stats</title>
<path d="M8.76 10.186h-6.303c-0.25 0-0.463 0.088-0.64 0.265s-0.265 0.39-0.265 0.64v18.004c0 0.25 0.088 0.463 0.265 0.64s0.39 0.265 0.64 0.265h6.303c0.25 0 0.463-0.088 0.64-0.265s0.265-0.39 0.265-0.64v-18.004c0-0.25-0.088-0.463-0.265-0.64s-0.39-0.265-0.64-0.265zM7.855 28.19h-4.493v-16.194h4.493zM18.651 15.553h-6.303c-0.25 0-0.463 0.088-0.64 0.265s-0.265 0.38-0.265 0.608v12.668c0 0.25 0.088 0.463 0.265 0.64s0.39 0.265 0.64 0.265h6.303c0.25 0 0.458-0.088 0.624-0.265s0.25-0.39 0.25-0.64v-12.668c0-0.229-0.083-0.432-0.25-0.608s-0.374-0.265-0.624-0.265zM17.747 28.19h-4.493v-10.858h4.493zM28.543 1.2h-6.272c-0.25 0-0.463 0.088-0.64 0.265s-0.265 0.39-0.265 0.64v26.99c0 0.25 0.088 0.463 0.265 0.64s0.39 0.265 0.64 0.265h6.272c0.25 0 0.463-0.088 0.64-0.265s0.265-0.39 0.265-0.64v-26.99c0-0.25-0.088-0.463-0.265-0.64s-0.39-0.265-0.64-0.265zM27.638 28.19h-4.493v-25.181h4.493z"></path>
</svg>
