<svg width="30" height="29" viewBox="0 0 30 29" fill="none" xmlns="http://www.w3.org/2000/svg">
<path d="M15.328 0.199951C7.37498 0.199951 0.927979 6.64695 0.927979 14.6C0.927979 22.553 7.37498 29 15.328 29C23.281 29 29.728 22.553 29.728 14.6C29.728 6.64695 23.281 0.199951 15.328 0.199951V0.199951ZM15.752 22.136C15.481 22.428 15.097 22.573 14.598 22.573C14.099 22.573 13.715 22.431 13.448 22.146C13.181 21.861 13.047 21.4619 13.047 20.9489C13.047 19.8869 13.564 19.357 14.597 19.357C15.103 19.357 15.49 19.496 15.757 19.773C16.024 20.05 16.158 20.4429 16.158 20.9489C16.158 21.4479 16.022 21.844 15.751 22.136H15.752ZM19.513 11.842C19.358 12.254 19.124 12.645 18.811 13.018C18.498 13.391 17.959 13.876 17.193 14.474C16.539 14.987 16.101 15.412 15.88 15.75C15.693 16.035 15.59 16.408 15.561 16.858C15.559 16.868 15.556 16.8709 15.554 16.8799C15.428 17.5899 14.604 17.5849 14.604 17.5849H14.171C14.171 17.5849 13.454 17.472 13.481 16.91C13.481 16.137 13.621 15.493 13.903 14.98C14.185 14.467 14.677 13.936 15.38 13.388C16.217 12.727 16.756 12.214 16.998 11.848C17.24 11.482 17.362 11.046 17.362 10.54C17.362 9.94995 17.165 9.49595 16.772 9.17895C16.379 8.86195 15.812 8.70395 15.074 8.70395C14.406 8.70395 13.787 8.79895 13.218 8.98895C12.907 9.09295 12.602 9.20995 12.299 9.33695C12.292 9.33895 12.29 9.33795 12.283 9.34095C11.583 9.61195 11.259 9.06095 11.259 9.06095L10.984 8.48595C10.983 8.48195 10.674 7.77995 11.362 7.47095C12.588 6.91095 13.884 6.62695 15.254 6.62695C16.632 6.62695 17.725 6.96495 18.534 7.63995C19.343 8.31495 19.747 9.24695 19.747 10.435C19.748 10.961 19.67 11.43 19.516 11.841L19.513 11.842Z" fill="#D5D6D9"/>
</svg>
