<svg width="256" height="256" viewBox="0 0 256 256" fill="none" xmlns="http://www.w3.org/2000/svg">
<rect width="256" height="256" fill="#F2F6FA"/>
<path fill-rule="evenodd" clip-rule="evenodd" d="M45.542 128.739C43.199 128.739 41.2807 128.336 39.7871 127.53C38.2934 126.725 37.1073 125.707 36.2287 124.477C35.3501 123.247 34.7424 121.907 34.4056 120.458C34.0688 119.008 33.9004 117.639 33.9004 116.35V96.8449H37.0634V115.999C37.0634 117.258 37.2098 118.481 37.5027 119.667C37.7956 120.853 38.2715 121.907 38.9304 122.83C39.5894 123.752 40.4607 124.499 41.5443 125.07C42.6279 125.641 43.9605 125.927 45.542 125.927C47.1235 125.927 48.4561 125.641 49.5397 125.07C50.6233 124.499 51.4946 123.752 52.1536 122.83C52.8125 121.907 53.2884 120.853 53.5812 119.667C53.8742 118.481 54.0206 117.258 54.0206 115.999V96.8449H57.1836V116.35C57.1836 117.639 57.0152 119.008 56.6784 120.458C56.3416 121.907 55.734 123.247 54.8552 124.477C53.9766 125.707 52.7833 126.725 51.275 127.53C49.7667 128.336 47.8557 128.739 45.542 128.739ZM80.8842 101.853C80.2106 100.916 79.3466 100.162 78.2922 99.5906C77.238 99.0195 75.964 98.734 74.4704 98.734C73.7088 98.734 72.9328 98.8511 72.142 99.0854C71.3512 99.3197 70.6338 99.6785 69.9894 100.162C69.345 100.645 68.8252 101.253 68.4298 101.985C68.0344 102.717 67.8368 103.581 67.8368 104.577C67.8368 105.572 68.0272 106.393 68.4078 107.037C68.7886 107.681 69.2938 108.23 69.9236 108.684C70.5532 109.138 71.2706 109.512 72.076 109.804C72.8814 110.097 73.7236 110.39 74.6022 110.683C75.6858 111.035 76.7766 111.415 77.875 111.825C78.9732 112.235 79.9616 112.77 80.8402 113.429C81.7188 114.088 82.4364 114.922 82.9928 115.933C83.5494 116.943 83.8276 118.224 83.8276 119.777C83.8276 121.329 83.5274 122.669 82.927 123.796C82.3266 124.924 81.5504 125.854 80.5986 126.586C79.6468 127.318 78.5632 127.86 77.3478 128.211C76.1324 128.563 74.9096 128.739 73.6796 128.739C72.7424 128.739 71.8052 128.643 70.868 128.453C69.9308 128.263 69.0376 127.977 68.1882 127.596C67.339 127.216 66.5482 126.732 65.816 126.147C65.0838 125.561 64.4394 124.887 63.883 124.126L66.6068 122.105C67.2804 123.218 68.2248 124.148 69.4402 124.895C70.6556 125.641 72.0834 126.015 73.7234 126.015C74.5142 126.015 75.3196 125.89 76.1396 125.641C76.9598 125.392 77.6992 125.012 78.3582 124.499C79.0172 123.987 79.559 123.357 79.9836 122.61C80.4082 121.863 80.6206 120.992 80.6206 119.996C80.6206 118.913 80.4082 118.012 79.9836 117.295C79.559 116.577 78.9952 115.977 78.2922 115.493C77.5894 115.01 76.784 114.608 75.8762 114.285C74.9682 113.963 74.0164 113.641 73.0206 113.319C71.9956 112.997 70.9852 112.631 69.9894 112.221C68.9936 111.811 68.1004 111.276 67.3096 110.617C66.5188 109.958 65.8818 109.146 65.3986 108.179C64.9154 107.213 64.6738 106.026 64.6738 104.621C64.6738 103.127 64.974 101.838 65.5744 100.755C66.1748 99.6711 66.9582 98.7779 67.9246 98.075C68.8912 97.3721 69.9602 96.8596 71.1316 96.5374C72.303 96.2153 73.46 96.0542 74.6022 96.0542C76.7108 96.0542 78.512 96.4276 80.0056 97.1744C81.4992 97.9212 82.6268 98.8072 83.3882 99.8322L80.8842 101.853ZM121.893 112.396C121.893 114.769 121.483 116.95 120.663 118.942C119.843 120.933 118.708 122.654 117.259 124.104C115.809 125.554 114.096 126.688 112.119 127.508C110.142 128.328 107.997 128.739 105.683 128.739C103.369 128.739 101.224 128.328 99.2472 127.508C97.2704 126.688 95.557 125.554 94.1074 124.104C92.6576 122.654 91.5228 120.933 90.7028 118.942C89.8826 116.95 89.4726 114.769 89.4726 112.396C89.4726 110.024 89.8826 107.842 90.7028 105.851C91.5228 103.859 92.6576 102.139 94.1074 100.689C95.557 99.2391 97.2704 98.1043 99.2472 97.2843C101.224 96.4642 103.369 96.0542 105.683 96.0542C107.997 96.0542 110.142 96.4642 112.119 97.2843C114.096 98.1043 115.809 99.2391 117.259 100.689C118.708 102.139 119.843 103.859 120.663 105.851C121.483 107.842 121.893 110.024 121.893 112.396ZM118.555 112.396C118.555 110.581 118.262 108.853 117.676 107.213C117.09 105.572 116.241 104.13 115.128 102.885C114.015 101.641 112.661 100.652 111.065 99.9201C109.468 99.1879 107.675 98.8218 105.683 98.8218C103.692 98.8218 101.898 99.1879 100.302 99.9201C98.7054 100.652 97.3508 101.641 96.238 102.885C95.125 104.13 94.2758 105.572 93.69 107.213C93.1042 108.853 92.8114 110.581 92.8114 112.396C92.8114 114.212 93.1042 115.94 93.69 117.58C94.2758 119.22 95.125 120.655 96.238 121.885C97.3508 123.115 98.7054 124.097 100.302 124.829C101.898 125.561 103.692 125.927 105.683 125.927C107.675 125.927 109.468 125.561 111.065 124.829C112.661 124.097 114.015 123.115 115.128 121.885C116.241 120.655 117.09 119.22 117.676 117.58C118.262 115.94 118.555 114.212 118.555 112.396ZM155.215 122.94C154.688 123.73 154.051 124.477 153.304 125.18C152.557 125.883 151.693 126.498 150.712 127.025C149.731 127.552 148.647 127.97 147.461 128.277C146.275 128.585 144.979 128.739 143.573 128.739C141.23 128.739 139.063 128.328 137.072 127.508C135.08 126.688 133.367 125.554 131.932 124.104C130.497 122.654 129.376 120.933 128.571 118.942C127.766 116.95 127.363 114.769 127.363 112.396C127.363 110.024 127.773 107.842 128.593 105.851C129.413 103.859 130.548 102.139 131.998 100.689C133.447 99.2391 135.161 98.1043 137.137 97.2843C139.114 96.4642 141.26 96.0542 143.573 96.0542C144.715 96.0542 145.836 96.1713 146.934 96.4056C148.032 96.6399 149.065 96.9694 150.031 97.3941C150.998 97.8187 151.876 98.3313 152.667 98.9317C153.458 99.532 154.117 100.213 154.644 100.974L152.008 102.907C151.686 102.409 151.254 101.912 150.712 101.414C150.17 100.916 149.533 100.477 148.801 100.096C148.069 99.7151 147.271 99.4076 146.407 99.1733C145.543 98.939 144.613 98.8218 143.617 98.8218C141.596 98.8218 139.788 99.1879 138.192 99.9201C136.596 100.652 135.241 101.641 134.128 102.885C133.015 104.13 132.166 105.572 131.58 107.213C130.994 108.853 130.702 110.581 130.702 112.396C130.702 114.212 131.002 115.94 131.602 117.58C132.203 119.22 133.059 120.663 134.172 121.907C135.285 123.152 136.64 124.14 138.236 124.873C139.832 125.605 141.626 125.971 143.617 125.971C145.404 125.971 147.102 125.605 148.713 124.873C150.324 124.14 151.671 122.969 152.755 121.358L155.215 122.94ZM164.374 127.948H161.211V96.8449H164.374V127.948ZM172.963 127.948H169.492L182.935 96.8449H186.01L199.365 127.948H195.851L192.424 119.777H176.345L172.963 127.948ZM177.532 116.877H191.238L184.385 100.359L177.532 116.877ZM207.646 125.136H222.143V127.948H204.483V96.8449H207.646V125.136Z" fill="#383E47"/>
<path d="M48.4238 151.581C48.4238 152.712 48.0137 153.594 47.1934 154.227C46.373 154.859 45.2598 155.176 43.8535 155.176C42.3301 155.176 41.1582 154.979 40.3379 154.587V153.146C40.8652 153.368 41.4395 153.544 42.0605 153.673C42.6816 153.802 43.2969 153.866 43.9062 153.866C44.9023 153.866 45.6523 153.679 46.1562 153.304C46.6602 152.923 46.9121 152.396 46.9121 151.722C46.9121 151.276 46.8213 150.913 46.6396 150.632C46.4639 150.345 46.165 150.081 45.7432 149.841C45.3271 149.601 44.6914 149.328 43.8359 149.023C42.6406 148.596 41.7852 148.089 41.2695 147.503C40.7598 146.917 40.5049 146.152 40.5049 145.209C40.5049 144.219 40.877 143.431 41.6211 142.845C42.3652 142.259 43.3496 141.966 44.5742 141.966C45.8516 141.966 47.0264 142.2 48.0986 142.669L47.6328 143.97C46.5723 143.524 45.541 143.302 44.5391 143.302C43.748 143.302 43.1299 143.472 42.6846 143.812C42.2393 144.151 42.0166 144.623 42.0166 145.227C42.0166 145.672 42.0986 146.038 42.2627 146.325C42.4268 146.606 42.7021 146.867 43.0889 147.107C43.4814 147.342 44.0791 147.603 44.8818 147.89C46.2295 148.37 47.1553 148.886 47.6592 149.437C48.1689 149.987 48.4238 150.702 48.4238 151.581ZM59.1464 150.175C59.1464 151.745 58.751 152.973 57.96 153.857C57.169 154.736 56.0762 155.176 54.6816 155.176C53.8204 155.176 53.0556 154.974 52.3877 154.569C51.7197 154.165 51.2041 153.585 50.8408 152.829C50.4775 152.073 50.2959 151.188 50.2959 150.175C50.2959 148.604 50.6885 147.383 51.4736 146.51C52.2588 145.631 53.3486 145.191 54.7432 145.191C56.0908 145.191 57.1602 145.64 57.9512 146.536C58.748 147.433 59.1464 148.646 59.1464 150.175ZM51.8076 150.175C51.8076 151.405 52.0537 152.343 52.5459 152.987C53.038 153.632 53.7618 153.954 54.7168 153.954C55.6718 153.954 56.3956 153.635 56.8876 152.996C57.3858 152.352 57.6348 151.411 57.6348 150.175C57.6348 148.95 57.3858 148.021 56.8876 147.389C56.3956 146.75 55.666 146.431 54.6992 146.431C53.7442 146.431 53.0234 146.744 52.5371 147.371C52.0508 147.998 51.8076 148.933 51.8076 150.175ZM65.5624 155.176C64.168 155.176 63.087 154.748 62.3194 153.893C61.5576 153.031 61.1768 151.815 61.1768 150.245C61.1768 148.634 61.5634 147.389 62.337 146.51C63.1162 145.631 64.2236 145.191 65.6592 145.191C66.122 145.191 66.585 145.241 67.0478 145.341C67.5108 145.44 67.874 145.558 68.1376 145.692L67.6894 146.932C67.3672 146.803 67.0156 146.697 66.6348 146.615C66.254 146.527 65.917 146.483 65.624 146.483C63.667 146.483 62.6884 147.731 62.6884 150.228C62.6884 151.411 62.9258 152.319 63.4004 152.952C63.8808 153.585 64.5898 153.901 65.5274 153.901C66.33 153.901 67.1534 153.729 67.997 153.383V154.675C67.3526 155.009 66.541 155.176 65.5624 155.176ZM71.75 155H70.291V145.367H71.75V155ZM70.168 142.757C70.168 142.423 70.25 142.18 70.414 142.027C70.5782 141.869 70.7832 141.79 71.0292 141.79C71.2636 141.79 71.4658 141.869 71.6358 142.027C71.8056 142.186 71.8906 142.429 71.8906 142.757C71.8906 143.085 71.8056 143.331 71.6358 143.495C71.4658 143.653 71.2636 143.732 71.0292 143.732C70.7832 143.732 70.5782 143.653 70.414 143.495C70.25 143.331 70.168 143.085 70.168 142.757ZM80.7676 155L80.4776 153.629H80.4072C79.9268 154.232 79.4462 154.643 78.9658 154.859C78.4912 155.07 77.8964 155.176 77.1816 155.176C76.2266 155.176 75.4766 154.93 74.9316 154.438C74.3926 153.945 74.123 153.245 74.123 152.337C74.123 150.392 75.6788 149.372 78.79 149.278L80.4248 149.226V148.628C80.4248 147.872 80.2608 147.315 79.9326 146.958C79.6104 146.595 79.0918 146.413 78.377 146.413C77.5742 146.413 76.666 146.659 75.6524 147.151L75.2042 146.035C75.6788 145.777 76.1972 145.575 76.7598 145.429C77.3282 145.282 77.8964 145.209 78.4648 145.209C79.6132 145.209 80.4628 145.464 81.0136 145.974C81.5704 146.483 81.8486 147.301 81.8486 148.426V155H80.7676ZM77.4716 153.972C78.3798 153.972 79.0918 153.723 79.6074 153.225C80.129 152.727 80.3896 152.029 80.3896 151.133V150.263L78.9306 150.324C77.7706 150.365 76.9326 150.547 76.417 150.869C75.9072 151.186 75.6524 151.681 75.6524 152.354C75.6524 152.882 75.8106 153.283 76.127 153.559C76.4492 153.834 76.8974 153.972 77.4716 153.972ZM86.3222 155H84.8632V141.324H86.3222V155ZM106.37 155V148.733C106.37 147.966 106.206 147.392 105.878 147.011C105.55 146.624 105.04 146.431 104.349 146.431C103.44 146.431 102.77 146.691 102.336 147.213C101.902 147.734 101.686 148.537 101.686 149.621V155H100.227V148.733C100.227 147.966 100.062 147.392 99.7344 147.011C99.4062 146.624 98.8936 146.431 98.1962 146.431C97.2822 146.431 96.6114 146.706 96.1836 147.257C95.7618 147.802 95.5508 148.698 95.5508 149.946V155H94.0918V145.367H95.2784L95.5156 146.686H95.586C95.8614 146.217 96.248 145.851 96.746 145.587C97.25 145.323 97.8124 145.191 98.4336 145.191C99.9394 145.191 100.924 145.736 101.387 146.826H101.457C101.744 146.322 102.16 145.924 102.705 145.631C103.25 145.338 103.871 145.191 104.568 145.191C105.658 145.191 106.473 145.473 107.012 146.035C107.557 146.592 107.829 147.485 107.829 148.716V155H106.37ZM114.913 155.176C113.489 155.176 112.364 154.742 111.538 153.875C110.718 153.008 110.308 151.804 110.308 150.263C110.308 148.71 110.688 147.477 111.45 146.562C112.218 145.648 113.246 145.191 114.535 145.191C115.742 145.191 116.697 145.59 117.4 146.387C118.104 147.178 118.455 148.224 118.455 149.524V150.447H111.819C111.849 151.578 112.133 152.437 112.672 153.022C113.217 153.608 113.981 153.901 114.966 153.901C116.003 153.901 117.028 153.685 118.042 153.251V154.552C117.526 154.774 117.037 154.933 116.574 155.026C116.117 155.126 115.563 155.176 114.913 155.176ZM114.518 146.413C113.744 146.413 113.126 146.665 112.663 147.169C112.206 147.673 111.937 148.37 111.854 149.261H116.891C116.891 148.341 116.686 147.638 116.275 147.151C115.865 146.659 115.279 146.413 114.518 146.413ZM127.508 153.708H127.429C126.755 154.687 125.747 155.176 124.405 155.176C123.146 155.176 122.164 154.745 121.461 153.884C120.764 153.022 120.415 151.798 120.415 150.21C120.415 148.622 120.767 147.389 121.47 146.51C122.173 145.631 123.151 145.191 124.405 145.191C125.712 145.191 126.714 145.666 127.411 146.615H127.525L127.464 145.921L127.429 145.244V141.324H128.888V155H127.701L127.508 153.708ZM124.59 153.954C125.586 153.954 126.307 153.685 126.752 153.146C127.203 152.601 127.429 151.725 127.429 150.518V150.21C127.429 148.845 127.2 147.872 126.743 147.292C126.292 146.706 125.568 146.413 124.572 146.413C123.717 146.413 123.061 146.747 122.604 147.415C122.152 148.077 121.927 149.015 121.927 150.228C121.927 151.458 122.152 152.387 122.604 153.014C123.055 153.641 123.717 153.954 124.59 153.954ZM133.449 155H131.99V145.367H133.449V155ZM131.867 142.757C131.867 142.423 131.949 142.18 132.113 142.027C132.277 141.869 132.482 141.79 132.729 141.79C132.963 141.79 133.165 141.869 133.335 142.027C133.505 142.186 133.59 142.429 133.59 142.757C133.59 143.085 133.505 143.331 133.335 143.495C133.165 143.653 132.963 143.732 132.729 143.732C132.482 143.732 132.277 143.653 132.113 143.495C131.949 143.331 131.867 143.085 131.867 142.757ZM142.467 155L142.177 153.629H142.106C141.626 154.232 141.146 154.643 140.665 154.859C140.19 155.07 139.596 155.176 138.881 155.176C137.926 155.176 137.176 154.93 136.631 154.438C136.092 153.945 135.822 153.245 135.822 152.337C135.822 150.392 137.378 149.372 140.489 149.278L142.124 149.226V148.628C142.124 147.872 141.96 147.315 141.632 146.958C141.31 146.595 140.791 146.413 140.076 146.413C139.273 146.413 138.365 146.659 137.352 147.151L136.903 146.035C137.378 145.777 137.896 145.575 138.459 145.429C139.027 145.282 139.596 145.209 140.164 145.209C141.312 145.209 142.162 145.464 142.713 145.974C143.27 146.483 143.548 147.301 143.548 148.426V155H142.467ZM139.171 153.972C140.079 153.972 140.791 153.723 141.307 153.225C141.828 152.727 142.089 152.029 142.089 151.133V150.263L140.63 150.324C139.47 150.365 138.632 150.547 138.116 150.869C137.606 151.186 137.352 151.681 137.352 152.354C137.352 152.882 137.51 153.283 137.826 153.559C138.148 153.834 138.597 153.972 139.171 153.972ZM157.452 152.372C157.452 153.269 157.118 153.96 156.45 154.446C155.782 154.933 154.845 155.176 153.638 155.176C152.36 155.176 151.364 154.974 150.649 154.569V153.216C151.112 153.45 151.607 153.635 152.135 153.77C152.668 153.904 153.181 153.972 153.673 153.972C154.435 153.972 155.021 153.852 155.431 153.611C155.841 153.365 156.046 152.993 156.046 152.495C156.046 152.12 155.882 151.801 155.554 151.537C155.231 151.268 154.599 150.951 153.655 150.588C152.759 150.254 152.12 149.964 151.739 149.718C151.364 149.466 151.083 149.182 150.896 148.865C150.714 148.549 150.623 148.171 150.623 147.731C150.623 146.946 150.942 146.328 151.581 145.877C152.22 145.42 153.096 145.191 154.209 145.191C155.246 145.191 156.26 145.402 157.25 145.824L156.731 147.011C155.765 146.612 154.889 146.413 154.104 146.413C153.412 146.413 152.891 146.521 152.539 146.738C152.188 146.955 152.012 147.254 152.012 147.635C152.012 147.893 152.076 148.112 152.205 148.294C152.34 148.476 152.554 148.648 152.847 148.812C153.14 148.977 153.702 149.214 154.534 149.524C155.677 149.94 156.447 150.359 156.846 150.781C157.25 151.203 157.452 151.733 157.452 152.372ZM163.903 155.176C162.479 155.176 161.354 154.742 160.528 153.875C159.708 153.008 159.298 151.804 159.298 150.263C159.298 148.71 159.679 147.477 160.44 146.562C161.208 145.648 162.236 145.191 163.525 145.191C164.732 145.191 165.688 145.59 166.391 146.387C167.094 147.178 167.445 148.224 167.445 149.524V150.447H160.81C160.839 151.578 161.123 152.437 161.662 153.022C162.207 153.608 162.972 153.901 163.956 153.901C164.993 153.901 166.019 153.685 167.032 153.251V154.552C166.517 154.774 166.027 154.933 165.564 155.026C165.107 155.126 164.554 155.176 163.903 155.176ZM163.508 146.413C162.734 146.413 162.116 146.665 161.653 147.169C161.196 147.673 160.927 148.37 160.845 149.261H165.881C165.881 148.341 165.676 147.638 165.266 147.151C164.855 146.659 164.27 146.413 163.508 146.413ZM174.336 145.191C174.764 145.191 175.147 145.227 175.487 145.297L175.285 146.65C174.887 146.562 174.535 146.519 174.23 146.519C173.451 146.519 172.783 146.835 172.227 147.468C171.676 148.101 171.4 148.889 171.4 149.832V155H169.941V145.367H171.146L171.312 147.151H171.383C171.74 146.524 172.171 146.041 172.675 145.701C173.179 145.361 173.732 145.191 174.336 145.191ZM179.398 155L175.742 145.367H177.307L179.381 151.08C179.85 152.416 180.125 153.283 180.207 153.682H180.277C180.342 153.371 180.544 152.729 180.884 151.757C181.229 150.778 182 148.648 183.195 145.367H184.76L181.104 155H179.398ZM187.766 155H186.307V145.367H187.766V155ZM186.184 142.757C186.184 142.423 186.266 142.18 186.43 142.027C186.594 141.869 186.799 141.79 187.045 141.79C187.279 141.79 187.481 141.869 187.651 142.027C187.821 142.186 187.906 142.429 187.906 142.757C187.906 143.085 187.821 143.331 187.651 143.495C187.481 143.653 187.279 143.732 187.045 143.732C186.799 143.732 186.594 143.653 186.43 143.495C186.266 143.331 186.184 143.085 186.184 142.757ZM194.709 155.176C193.314 155.176 192.233 154.748 191.466 153.893C190.704 153.031 190.323 151.815 190.323 150.245C190.323 148.634 190.71 147.389 191.483 146.51C192.263 145.631 193.37 145.191 194.806 145.191C195.269 145.191 195.731 145.241 196.194 145.341C196.657 145.44 197.021 145.558 197.284 145.692L196.836 146.932C196.514 146.803 196.162 146.697 195.781 146.615C195.4 146.527 195.063 146.483 194.771 146.483C192.813 146.483 191.835 147.731 191.835 150.228C191.835 151.411 192.072 152.319 192.547 152.952C193.027 153.585 193.736 153.901 194.674 153.901C195.477 153.901 196.3 153.729 197.144 153.383V154.675C196.499 155.009 195.688 155.176 194.709 155.176ZM203.507 155.176C202.083 155.176 200.958 154.742 200.132 153.875C199.312 153.008 198.901 151.804 198.901 150.263C198.901 148.71 199.282 147.477 200.044 146.562C200.812 145.648 201.84 145.191 203.129 145.191C204.336 145.191 205.291 145.59 205.994 146.387C206.697 147.178 207.049 148.224 207.049 149.524V150.447H200.413C200.442 151.578 200.727 152.437 201.266 153.022C201.811 153.608 202.575 153.901 203.56 153.901C204.597 153.901 205.622 153.685 206.636 153.251V154.552C206.12 154.774 205.631 154.933 205.168 155.026C204.711 155.126 204.157 155.176 203.507 155.176ZM203.111 146.413C202.338 146.413 201.72 146.665 201.257 147.169C200.8 147.673 200.53 148.37 200.448 149.261H205.484C205.484 148.341 205.279 147.638 204.869 147.151C204.459 146.659 203.873 146.413 203.111 146.413ZM215.759 152.372C215.759 153.269 215.425 153.96 214.757 154.446C214.089 154.933 213.151 155.176 211.944 155.176C210.667 155.176 209.671 154.974 208.956 154.569V153.216C209.419 153.45 209.914 153.635 210.441 153.77C210.975 153.904 211.487 153.972 211.979 153.972C212.741 153.972 213.327 153.852 213.737 153.611C214.147 153.365 214.353 152.993 214.353 152.495C214.353 152.12 214.188 151.801 213.86 151.537C213.538 151.268 212.905 150.951 211.962 150.588C211.065 150.254 210.427 149.964 210.046 149.718C209.671 149.466 209.39 149.182 209.202 148.865C209.021 148.549 208.93 148.171 208.93 147.731C208.93 146.946 209.249 146.328 209.888 145.877C210.526 145.42 211.402 145.191 212.516 145.191C213.553 145.191 214.566 145.402 215.557 145.824L215.038 147.011C214.071 146.612 213.195 146.413 212.41 146.413C211.719 146.413 211.197 146.521 210.846 146.738C210.494 146.955 210.318 147.254 210.318 147.635C210.318 147.893 210.383 148.112 210.512 148.294C210.646 148.476 210.86 148.648 211.153 148.812C211.446 148.977 212.009 149.214 212.841 149.524C213.983 149.94 214.754 150.359 215.152 150.781C215.557 151.203 215.759 151.733 215.759 152.372Z" fill="#383E47"/>
</svg>
